<svg width="452" height="88" viewBox="0 0 452 88" fill="none" xmlns="http://www.w3.org/2000/svg">
<rect x="28.5" y="19.5" width="34" height="14" rx="3.5" stroke="#7E7E7E" stroke-width="3"/>
<rect x="28.5" y="51.5" width="34" height="14" rx="3.5" stroke="#7E7E7E" stroke-width="3"/>
<path d="M2.36364 42.4545V39.6364C4.89394 39.6364 6.65909 39.1061 7.65909 38.0455C8.67424 36.9848 9.18182 35.2121 9.18182 32.7273V25.4545C9.18182 23.3636 9.37879 21.553 9.77273 20.0227C10.1818 18.4924 10.8409 17.2273 11.75 16.2273C12.6591 15.2273 13.8712 14.4848 15.3864 14C16.9015 13.5151 18.7727 13.2727 21 13.2727V17.7273C19.2424 17.7273 17.8561 18 16.8409 18.5455C15.8409 19.0909 15.1288 19.9394 14.7045 21.0909C14.2955 22.2273 14.0909 23.6818 14.0909 25.4545V34.5455C14.0909 35.7273 13.9318 36.803 13.6136 37.7727C13.3106 38.7424 12.7424 39.5758 11.9091 40.2727C11.0758 40.9697 9.88636 41.5076 8.34091 41.8864C6.81061 42.2652 4.81818 42.4545 2.36364 42.4545ZM21 71.4545C18.7727 71.4545 16.9015 71.2121 15.3864 70.7273C13.8712 70.2424 12.6591 69.5 11.75 68.5C10.8409 67.5 10.1818 66.2348 9.77273 64.7045C9.37879 63.1742 9.18182 61.3636 9.18182 59.2727V52C9.18182 49.5152 8.67424 47.7424 7.65909 46.6818C6.65909 45.6212 4.89394 45.0909 2.36364 45.0909V42.2727C4.81818 42.2727 6.81061 42.4621 8.34091 42.8409C9.88636 43.2197 11.0758 43.7576 11.9091 44.4545C12.7424 45.1515 13.3106 45.9848 13.6136 46.9545C13.9318 47.9242 14.0909 49 14.0909 50.1818V59.2727C14.0909 61.0455 14.2955 62.5 14.7045 63.6364C15.1288 64.7727 15.8409 65.6136 16.8409 66.1591C17.8561 66.7197 19.2424 67 21 67V71.4545ZM2.36364 45.0909V39.6364H7.72727V45.0909H2.36364Z" fill="#7E7E7E"/>
<path d="M86.8182 42.2727V45.0909C84.2879 45.0909 82.5152 45.6212 81.5 46.6818C80.5 47.7424 80 49.5152 80 52V59.2727C80 61.3636 79.7955 63.1742 79.3864 64.7045C78.9924 66.2348 78.3409 67.5 77.4318 68.5C76.5227 69.5 75.3106 70.2424 73.7955 70.7273C72.2803 71.2121 70.4091 71.4545 68.1818 71.4545V67C69.9394 67 71.3182 66.7197 72.3182 66.1591C73.3333 65.6136 74.0455 64.7727 74.4545 63.6364C74.8788 62.5 75.0909 61.0455 75.0909 59.2727V50.1818C75.0909 49 75.2424 47.9242 75.5455 46.9545C75.8636 45.9848 76.4394 45.1515 77.2727 44.4545C78.1061 43.7576 79.2879 43.2197 80.8182 42.8409C82.3636 42.4621 84.3636 42.2727 86.8182 42.2727ZM68.1818 13.2727C70.4091 13.2727 72.2803 13.5151 73.7955 14C75.3106 14.4848 76.5227 15.2273 77.4318 16.2273C78.3409 17.2273 78.9924 18.4924 79.3864 20.0227C79.7955 21.553 80 23.3636 80 25.4545V32.7273C80 35.2121 80.5 36.9848 81.5 38.0455C82.5152 39.1061 84.2879 39.6364 86.8182 39.6364V42.4545C84.3636 42.4545 82.3636 42.2652 80.8182 41.8864C79.2879 41.5076 78.1061 40.9697 77.2727 40.2727C76.4394 39.5758 75.8636 38.7424 75.5455 37.7727C75.2424 36.803 75.0909 35.7273 75.0909 34.5455V25.4545C75.0909 23.6818 74.8788 22.2273 74.4545 21.0909C74.0455 19.9394 73.3333 19.0909 72.3182 18.5455C71.3182 18 69.9394 17.7273 68.1818 17.7273V13.2727ZM86.8182 39.6364V45.0909H81.4545V39.6364H86.8182Z" fill="#7E7E7E"/>
<path d="M111.33 48.2727C110.068 48.2727 108.98 47.9943 108.065 47.4375C107.156 46.875 106.455 46.0909 105.96 45.0852C105.472 44.0739 105.227 42.8977 105.227 41.5568C105.227 40.2159 105.472 39.0341 105.96 38.0114C106.455 36.983 107.142 36.1818 108.023 35.608C108.909 35.0284 109.943 34.7386 111.125 34.7386C111.807 34.7386 112.48 34.8523 113.145 35.0795C113.81 35.3068 114.415 35.6761 114.96 36.1875C115.506 36.6932 115.94 37.3636 116.264 38.1989C116.588 39.0341 116.75 40.0625 116.75 41.2841V42.1364H106.659V40.3977H114.705C114.705 39.6591 114.557 39 114.261 38.4205C113.972 37.8409 113.557 37.3835 113.017 37.0483C112.483 36.7131 111.852 36.5455 111.125 36.5455C110.324 36.5455 109.631 36.7443 109.045 37.142C108.466 37.5341 108.02 38.0455 107.707 38.6761C107.395 39.3068 107.239 39.983 107.239 40.7045V41.8636C107.239 42.8523 107.409 43.6903 107.75 44.3778C108.097 45.0597 108.577 45.5795 109.19 45.9375C109.804 46.2898 110.517 46.4659 111.33 46.4659C111.858 46.4659 112.335 46.392 112.761 46.2443C113.193 46.0909 113.565 45.8636 113.878 45.5625C114.19 45.2557 114.432 44.875 114.602 44.4205L116.545 44.9659C116.341 45.625 115.997 46.2045 115.514 46.7045C115.031 47.1989 114.435 47.5852 113.724 47.8636C113.014 48.1364 112.216 48.2727 111.33 48.2727ZM129.082 37.8409L127.276 38.3523C127.162 38.0511 126.994 37.7585 126.773 37.4744C126.557 37.1847 126.261 36.946 125.886 36.7585C125.511 36.571 125.031 36.4773 124.446 36.4773C123.645 36.4773 122.977 36.6619 122.443 37.0312C121.915 37.3949 121.651 37.858 121.651 38.4205C121.651 38.9205 121.832 39.3153 122.196 39.6051C122.56 39.8949 123.128 40.1364 123.901 40.3295L125.844 40.8068C127.014 41.0909 127.886 41.5256 128.46 42.1108C129.034 42.6903 129.321 43.4375 129.321 44.3523C129.321 45.1023 129.105 45.7727 128.673 46.3636C128.247 46.9545 127.651 47.4205 126.884 47.7614C126.116 48.1023 125.224 48.2727 124.207 48.2727C122.872 48.2727 121.767 47.983 120.892 47.4034C120.017 46.8239 119.463 45.9773 119.23 44.8636L121.139 44.3864C121.321 45.0909 121.665 45.6193 122.17 45.9716C122.682 46.3239 123.349 46.5 124.173 46.5C125.111 46.5 125.855 46.3011 126.406 45.9034C126.963 45.5 127.241 45.017 127.241 44.4545C127.241 44 127.082 43.6193 126.764 43.3125C126.446 43 125.957 42.767 125.298 42.6136L123.116 42.1023C121.918 41.8182 121.037 41.3778 120.474 40.7812C119.918 40.179 119.639 39.4261 119.639 38.5227C119.639 37.7841 119.847 37.1307 120.261 36.5625C120.682 35.9943 121.253 35.5483 121.974 35.2244C122.702 34.9006 123.526 34.7386 124.446 34.7386C125.741 34.7386 126.759 35.0227 127.497 35.5909C128.241 36.1591 128.77 36.9091 129.082 37.8409ZM134.36 30.5455V48H132.349V30.5455H134.36ZM138.044 48V34.9091H140.055V48H138.044ZM139.067 32.7273C138.675 32.7273 138.337 32.5938 138.053 32.3267C137.774 32.0597 137.635 31.7386 137.635 31.3636C137.635 30.9886 137.774 30.6676 138.053 30.4006C138.337 30.1335 138.675 30 139.067 30C139.459 30 139.794 30.1335 140.072 30.4006C140.357 30.6676 140.499 30.9886 140.499 31.3636C140.499 31.7386 140.357 32.0597 140.072 32.3267C139.794 32.5938 139.459 32.7273 139.067 32.7273ZM145.751 40.125V48H143.739V34.9091H145.683V36.9545H145.853C146.16 36.2898 146.626 35.7557 147.251 35.3523C147.876 34.9432 148.683 34.7386 149.671 34.7386C150.558 34.7386 151.333 34.9205 151.998 35.2841C152.663 35.642 153.18 36.1875 153.549 36.9205C153.918 37.6477 154.103 38.5682 154.103 39.6818V48H152.092V39.8182C152.092 38.7898 151.825 37.9886 151.29 37.4148C150.756 36.8352 150.023 36.5455 149.092 36.5455C148.45 36.5455 147.876 36.6847 147.37 36.9631C146.87 37.2415 146.475 37.6477 146.185 38.1818C145.896 38.7159 145.751 39.3636 145.751 40.125ZM163.472 34.9091V36.6136H156.688V34.9091H163.472ZM158.665 31.7727H160.676V44.25C160.676 44.8182 160.759 45.2443 160.923 45.5284C161.094 45.8068 161.31 45.9943 161.571 46.0909C161.838 46.1818 162.119 46.2273 162.415 46.2273C162.636 46.2273 162.818 46.2159 162.96 46.1932C163.102 46.1648 163.216 46.142 163.301 46.125L163.71 47.9318C163.574 47.983 163.384 48.0341 163.139 48.0852C162.895 48.142 162.585 48.1705 162.21 48.1705C161.642 48.1705 161.085 48.0483 160.54 47.804C160 47.5597 159.551 47.1875 159.193 46.6875C158.841 46.1875 158.665 45.5568 158.665 44.7955V31.7727ZM173.528 39.5795V41.4545H165.892V39.5795H173.528ZM177.067 52.9091V34.9091H179.011V36.9886H179.249C179.397 36.7614 179.602 36.4716 179.863 36.1193C180.13 35.7614 180.511 35.4432 181.005 35.1648C181.505 34.8807 182.181 34.7386 183.033 34.7386C184.136 34.7386 185.107 35.0142 185.948 35.5653C186.789 36.1165 187.445 36.8977 187.917 37.9091C188.388 38.9205 188.624 40.1136 188.624 41.4886C188.624 42.875 188.388 44.0767 187.917 45.0938C187.445 46.1051 186.792 46.8892 185.957 47.446C185.121 47.9972 184.158 48.2727 183.067 48.2727C182.227 48.2727 181.553 48.1335 181.048 47.8551C180.542 47.571 180.153 47.25 179.88 46.892C179.607 46.5284 179.397 46.2273 179.249 45.9886H179.079V52.9091H177.067ZM179.045 41.4545C179.045 42.4432 179.19 43.3153 179.479 44.071C179.769 44.821 180.192 45.4091 180.749 45.8352C181.306 46.2557 181.988 46.4659 182.795 46.4659C183.636 46.4659 184.337 46.2443 184.9 45.8011C185.468 45.3523 185.894 44.75 186.178 43.9943C186.468 43.233 186.613 42.3864 186.613 41.4545C186.613 40.5341 186.471 39.7045 186.187 38.9659C185.908 38.2216 185.485 37.6335 184.917 37.2017C184.354 36.7642 183.647 36.5455 182.795 36.5455C181.977 36.5455 181.289 36.7528 180.732 37.1676C180.175 37.5767 179.755 38.1506 179.471 38.8892C179.187 39.6222 179.045 40.4773 179.045 41.4545ZM193.704 30.5455V48H191.692V30.5455H193.704ZM205.638 42.6477V34.9091H207.649V48H205.638V45.7841H205.501C205.195 46.4489 204.717 47.0142 204.07 47.4801C203.422 47.9403 202.604 48.1705 201.615 48.1705C200.797 48.1705 200.07 47.9915 199.433 47.6335C198.797 47.2699 198.297 46.7244 197.933 45.9972C197.57 45.2642 197.388 44.3409 197.388 43.2273V34.9091H199.399V43.0909C199.399 44.0455 199.666 44.8068 200.2 45.375C200.74 45.9432 201.428 46.2273 202.263 46.2273C202.763 46.2273 203.271 46.0994 203.788 45.8438C204.311 45.5881 204.749 45.196 205.101 44.6676C205.459 44.1392 205.638 43.4659 205.638 42.6477ZM216.617 53.1818C215.646 53.1818 214.81 53.0568 214.112 52.8068C213.413 52.5625 212.83 52.2386 212.364 51.8352C211.904 51.4375 211.538 51.0114 211.265 50.5568L212.867 49.4318C213.049 49.6705 213.279 49.9432 213.558 50.25C213.836 50.5625 214.217 50.8324 214.7 51.0597C215.188 51.2926 215.827 51.4091 216.617 51.4091C217.674 51.4091 218.546 51.1534 219.234 50.642C219.921 50.1307 220.265 49.3295 220.265 48.2386V45.5795H220.094C219.947 45.8182 219.737 46.1136 219.464 46.4659C219.197 46.8125 218.81 47.1222 218.305 47.3949C217.805 47.6619 217.129 47.7955 216.276 47.7955C215.219 47.7955 214.271 47.5455 213.43 47.0455C212.594 46.5455 211.933 45.8182 211.444 44.8636C210.961 43.9091 210.719 42.75 210.719 41.3864C210.719 40.0455 210.955 38.8778 211.427 37.8835C211.898 36.8835 212.555 36.1108 213.396 35.5653C214.237 35.0142 215.208 34.7386 216.31 34.7386C217.163 34.7386 217.839 34.8807 218.339 35.1648C218.844 35.4432 219.231 35.7614 219.498 36.1193C219.771 36.4716 219.981 36.7614 220.129 36.9886H220.333V34.9091H222.276V48.375C222.276 49.5 222.021 50.4148 221.509 51.1193C221.004 51.8295 220.322 52.3494 219.464 52.679C218.612 53.0142 217.663 53.1818 216.617 53.1818ZM216.549 45.9886C217.356 45.9886 218.038 45.804 218.594 45.4347C219.151 45.0653 219.575 44.5341 219.864 43.8409C220.154 43.1477 220.299 42.3182 220.299 41.3523C220.299 40.4091 220.157 39.5767 219.873 38.8551C219.589 38.1335 219.168 37.5682 218.612 37.1591C218.055 36.75 217.367 36.5455 216.549 36.5455C215.697 36.5455 214.987 36.7614 214.418 37.1932C213.856 37.625 213.433 38.2045 213.148 38.9318C212.87 39.6591 212.731 40.4659 212.731 41.3523C212.731 42.2614 212.873 43.0653 213.157 43.7642C213.447 44.4574 213.873 45.0028 214.435 45.4006C215.004 45.7926 215.708 45.9886 216.549 45.9886ZM225.958 48V34.9091H227.969V48H225.958ZM226.981 32.7273C226.589 32.7273 226.251 32.5938 225.967 32.3267C225.688 32.0597 225.549 31.7386 225.549 31.3636C225.549 30.9886 225.688 30.6676 225.967 30.4006C226.251 30.1335 226.589 30 226.981 30C227.373 30 227.708 30.1335 227.987 30.4006C228.271 30.6676 228.413 30.9886 228.413 31.3636C228.413 31.7386 228.271 32.0597 227.987 32.3267C227.708 32.5938 227.373 32.7273 226.981 32.7273ZM233.665 40.125V48H231.653V34.9091H233.597V36.9545H233.767C234.074 36.2898 234.54 35.7557 235.165 35.3523C235.79 34.9432 236.597 34.7386 237.585 34.7386C238.472 34.7386 239.247 34.9205 239.912 35.2841C240.577 35.642 241.094 36.1875 241.463 36.9205C241.832 37.6477 242.017 38.5682 242.017 39.6818V48H240.006V39.8182C240.006 38.7898 239.739 37.9886 239.205 37.4148C238.67 36.8352 237.938 36.5455 237.006 36.5455C236.364 36.5455 235.79 36.6847 235.284 36.9631C234.784 37.2415 234.389 37.6477 234.099 38.1818C233.81 38.7159 233.665 39.3636 233.665 40.125ZM253.192 39.5795V41.4545H245.556V39.5795H253.192ZM262.016 53.1818C261.044 53.1818 260.209 53.0568 259.51 52.8068C258.811 52.5625 258.229 52.2386 257.763 51.8352C257.303 51.4375 256.936 51.0114 256.663 50.5568L258.266 49.4318C258.447 49.6705 258.678 49.9432 258.956 50.25C259.234 50.5625 259.615 50.8324 260.098 51.0597C260.587 51.2926 261.226 51.4091 262.016 51.4091C263.072 51.4091 263.945 51.1534 264.632 50.642C265.32 50.1307 265.663 49.3295 265.663 48.2386V45.5795H265.493C265.345 45.8182 265.135 46.1136 264.862 46.4659C264.595 46.8125 264.209 47.1222 263.703 47.3949C263.203 47.6619 262.527 47.7955 261.675 47.7955C260.618 47.7955 259.669 47.5455 258.828 47.0455C257.993 46.5455 257.331 45.8182 256.842 44.8636C256.359 43.9091 256.118 42.75 256.118 41.3864C256.118 40.0455 256.354 38.8778 256.825 37.8835C257.297 36.8835 257.953 36.1108 258.794 35.5653C259.635 35.0142 260.607 34.7386 261.709 34.7386C262.561 34.7386 263.237 34.8807 263.737 35.1648C264.243 35.4432 264.629 35.7614 264.896 36.1193C265.169 36.4716 265.379 36.7614 265.527 36.9886H265.732V34.9091H267.675V48.375C267.675 49.5 267.419 50.4148 266.908 51.1193C266.402 51.8295 265.72 52.3494 264.862 52.679C264.01 53.0142 263.061 53.1818 262.016 53.1818ZM261.947 45.9886C262.754 45.9886 263.436 45.804 263.993 45.4347C264.55 45.0653 264.973 44.5341 265.263 43.8409C265.553 43.1477 265.697 42.3182 265.697 41.3523C265.697 40.4091 265.555 39.5767 265.271 38.8551C264.987 38.1335 264.567 37.5682 264.01 37.1591C263.453 36.75 262.766 36.5455 261.947 36.5455C261.095 36.5455 260.385 36.7614 259.817 37.1932C259.254 37.625 258.831 38.2045 258.547 38.9318C258.268 39.6591 258.129 40.4659 258.129 41.3523C258.129 42.2614 258.271 43.0653 258.555 43.7642C258.845 44.4574 259.271 45.0028 259.834 45.4006C260.402 45.7926 261.107 45.9886 261.947 45.9886ZM271.357 48V34.9091H273.3V36.8864H273.436C273.675 36.2386 274.107 35.7131 274.732 35.3097C275.357 34.9062 276.061 34.7045 276.845 34.7045C276.993 34.7045 277.178 34.7074 277.399 34.7131C277.621 34.7187 277.788 34.7273 277.902 34.7386V36.7841C277.834 36.767 277.678 36.7415 277.433 36.7074C277.195 36.6676 276.942 36.6477 276.675 36.6477C276.038 36.6477 275.47 36.7812 274.97 37.0483C274.476 37.3097 274.084 37.6733 273.794 38.1392C273.51 38.5994 273.368 39.125 273.368 39.7159V48H271.357ZM285.206 48.2727C284.024 48.2727 282.987 47.9915 282.095 47.429C281.209 46.8665 280.516 46.0795 280.016 45.0682C279.521 44.0568 279.274 42.875 279.274 41.5227C279.274 40.1591 279.521 38.9687 280.016 37.9517C280.516 36.9347 281.209 36.1449 282.095 35.5824C282.987 35.0199 284.024 34.7386 285.206 34.7386C286.388 34.7386 287.422 35.0199 288.308 35.5824C289.2 36.1449 289.893 36.9347 290.388 37.9517C290.888 38.9687 291.138 40.1591 291.138 41.5227C291.138 42.875 290.888 44.0568 290.388 45.0682C289.893 46.0795 289.2 46.8665 288.308 47.429C287.422 47.9915 286.388 48.2727 285.206 48.2727ZM285.206 46.4659C286.104 46.4659 286.842 46.2358 287.422 45.7756C288.001 45.3153 288.43 44.7102 288.709 43.9602C288.987 43.2102 289.126 42.3977 289.126 41.5227C289.126 40.6477 288.987 39.8324 288.709 39.0767C288.43 38.321 288.001 37.7102 287.422 37.2443C286.842 36.7784 286.104 36.5455 285.206 36.5455C284.308 36.5455 283.57 36.7784 282.99 37.2443C282.411 37.7102 281.982 38.321 281.703 39.0767C281.425 39.8324 281.286 40.6477 281.286 41.5227C281.286 42.3977 281.425 43.2102 281.703 43.9602C281.982 44.7102 282.411 45.3153 282.99 45.7756C283.57 46.2358 284.308 46.4659 285.206 46.4659ZM302.458 42.6477V34.9091H304.469V48H302.458V45.7841H302.322C302.015 46.4489 301.538 47.0142 300.89 47.4801C300.242 47.9403 299.424 48.1705 298.435 48.1705C297.617 48.1705 296.89 47.9915 296.254 47.6335C295.617 47.2699 295.117 46.7244 294.754 45.9972C294.39 45.2642 294.208 44.3409 294.208 43.2273V34.9091H296.219V43.0909C296.219 44.0455 296.487 44.8068 297.021 45.375C297.56 45.9432 298.248 46.2273 299.083 46.2273C299.583 46.2273 300.092 46.0994 300.609 45.8438C301.131 45.5881 301.569 45.196 301.921 44.6676C302.279 44.1392 302.458 43.4659 302.458 42.6477ZM308.153 52.9091V34.9091H310.097V36.9886H310.335C310.483 36.7614 310.688 36.4716 310.949 36.1193C311.216 35.7614 311.597 35.4432 312.091 35.1648C312.591 34.8807 313.267 34.7386 314.119 34.7386C315.222 34.7386 316.193 35.0142 317.034 35.5653C317.875 36.1165 318.531 36.8977 319.003 37.9091C319.474 38.9205 319.71 40.1136 319.71 41.4886C319.71 42.875 319.474 44.0767 319.003 45.0938C318.531 46.1051 317.878 46.8892 317.043 47.446C316.207 47.9972 315.244 48.2727 314.153 48.2727C313.313 48.2727 312.639 48.1335 312.134 47.8551C311.628 47.571 311.239 47.25 310.966 46.892C310.693 46.5284 310.483 46.2273 310.335 45.9886H310.165V52.9091H308.153ZM310.131 41.4545C310.131 42.4432 310.276 43.3153 310.565 44.071C310.855 44.821 311.278 45.4091 311.835 45.8352C312.392 46.2557 313.074 46.4659 313.881 46.4659C314.722 46.4659 315.423 46.2443 315.986 45.8011C316.554 45.3523 316.98 44.75 317.264 43.9943C317.554 43.233 317.699 42.3864 317.699 41.4545C317.699 40.5341 317.557 39.7045 317.273 38.9659C316.994 38.2216 316.571 37.6335 316.003 37.2017C315.44 36.7642 314.733 36.5455 313.881 36.5455C313.063 36.5455 312.375 36.7528 311.818 37.1676C311.261 37.5767 310.841 38.1506 310.557 38.8892C310.273 39.6222 310.131 40.4773 310.131 41.4545ZM330.278 39.5795V41.4545H322.642V39.5795H330.278ZM333.817 48V34.9091H335.829V48H333.817ZM334.84 32.7273C334.448 32.7273 334.11 32.5938 333.826 32.3267C333.548 32.0597 333.408 31.7386 333.408 31.3636C333.408 30.9886 333.548 30.6676 333.826 30.4006C334.11 30.1335 334.448 30 334.84 30C335.232 30 335.567 30.1335 335.846 30.4006C336.13 30.6676 336.272 30.9886 336.272 31.3636C336.272 31.7386 336.13 32.0597 335.846 32.3267C335.567 32.5938 335.232 32.7273 334.84 32.7273ZM339.513 48V34.9091H341.456V36.9545H341.626C341.899 36.2557 342.339 35.7131 342.947 35.3267C343.555 34.9347 344.286 34.7386 345.138 34.7386C346.001 34.7386 346.72 34.9347 347.294 35.3267C347.874 35.7131 348.325 36.2557 348.649 36.9545H348.786C349.121 36.2784 349.624 35.7415 350.294 35.3438C350.964 34.9403 351.768 34.7386 352.706 34.7386C353.876 34.7386 354.834 35.1051 355.578 35.8381C356.322 36.5653 356.695 37.6989 356.695 39.2386V48H354.683V39.2386C354.683 38.2727 354.419 37.5824 353.891 37.1676C353.362 36.7528 352.74 36.5455 352.024 36.5455C351.104 36.5455 350.391 36.8239 349.885 37.3807C349.379 37.9318 349.126 38.6307 349.126 39.4773V48H347.081V39.0341C347.081 38.2898 346.839 37.6903 346.357 37.2358C345.874 36.7756 345.251 36.5455 344.49 36.5455C343.967 36.5455 343.479 36.6847 343.024 36.9631C342.575 37.2415 342.212 37.6278 341.933 38.1222C341.661 38.6108 341.524 39.1761 341.524 39.8182V48H339.513ZM360.372 52.9091V34.9091H362.315V36.9886H362.554C362.702 36.7614 362.906 36.4716 363.168 36.1193C363.435 35.7614 363.815 35.4432 364.31 35.1648C364.81 34.8807 365.486 34.7386 366.338 34.7386C367.44 34.7386 368.412 35.0142 369.253 35.5653C370.094 36.1165 370.75 36.8977 371.222 37.9091C371.693 38.9205 371.929 40.1136 371.929 41.4886C371.929 42.875 371.693 44.0767 371.222 45.0938C370.75 46.1051 370.097 46.8892 369.261 47.446C368.426 47.9972 367.463 48.2727 366.372 48.2727C365.531 48.2727 364.858 48.1335 364.352 47.8551C363.847 47.571 363.457 47.25 363.185 46.892C362.912 46.5284 362.702 46.2273 362.554 45.9886H362.384V52.9091H360.372ZM362.349 41.4545C362.349 42.4432 362.494 43.3153 362.784 44.071C363.074 44.821 363.497 45.4091 364.054 45.8352C364.611 46.2557 365.293 46.4659 366.099 46.4659C366.94 46.4659 367.642 46.2443 368.205 45.8011C368.773 45.3523 369.199 44.75 369.483 43.9943C369.773 43.233 369.918 42.3864 369.918 41.4545C369.918 40.5341 369.776 39.7045 369.491 38.9659C369.213 38.2216 368.79 37.6335 368.222 37.2017C367.659 36.7642 366.952 36.5455 366.099 36.5455C365.281 36.5455 364.594 36.7528 364.037 37.1676C363.48 37.5767 363.06 38.1506 362.776 38.8892C362.491 39.6222 362.349 40.4773 362.349 41.4545ZM380.315 48.2727C379.134 48.2727 378.097 47.9915 377.205 47.429C376.318 46.8665 375.625 46.0795 375.125 45.0682C374.631 44.0568 374.384 42.875 374.384 41.5227C374.384 40.1591 374.631 38.9687 375.125 37.9517C375.625 36.9347 376.318 36.1449 377.205 35.5824C378.097 35.0199 379.134 34.7386 380.315 34.7386C381.497 34.7386 382.531 35.0199 383.418 35.5824C384.31 36.1449 385.003 36.9347 385.497 37.9517C385.997 38.9687 386.247 40.1591 386.247 41.5227C386.247 42.875 385.997 44.0568 385.497 45.0682C385.003 46.0795 384.31 46.8665 383.418 47.429C382.531 47.9915 381.497 48.2727 380.315 48.2727ZM380.315 46.4659C381.213 46.4659 381.952 46.2358 382.531 45.7756C383.111 45.3153 383.54 44.7102 383.818 43.9602C384.097 43.2102 384.236 42.3977 384.236 41.5227C384.236 40.6477 384.097 39.8324 383.818 39.0767C383.54 38.321 383.111 37.7102 382.531 37.2443C381.952 36.7784 381.213 36.5455 380.315 36.5455C379.418 36.5455 378.679 36.7784 378.099 37.2443C377.52 37.7102 377.091 38.321 376.812 39.0767C376.534 39.8324 376.395 40.6477 376.395 41.5227C376.395 42.3977 376.534 43.2102 376.812 43.9602C377.091 44.7102 377.52 45.3153 378.099 45.7756C378.679 46.2358 379.418 46.4659 380.315 46.4659ZM389.317 48V34.9091H391.261V36.8864H391.397C391.636 36.2386 392.067 35.7131 392.692 35.3097C393.317 34.9062 394.022 34.7045 394.806 34.7045C394.954 34.7045 395.138 34.7074 395.36 34.7131C395.582 34.7187 395.749 34.7273 395.863 34.7386V36.7841C395.795 36.767 395.638 36.7415 395.394 36.7074C395.156 36.6676 394.903 36.6477 394.636 36.6477C393.999 36.6477 393.431 36.7812 392.931 37.0483C392.437 37.3097 392.045 37.6733 391.755 38.1392C391.471 38.5994 391.329 39.125 391.329 39.7159V48H389.317ZM404.761 34.9091V36.6136H397.977V34.9091H404.761ZM399.954 31.7727H401.965V44.25C401.965 44.8182 402.048 45.2443 402.212 45.5284C402.383 45.8068 402.599 45.9943 402.86 46.0909C403.127 46.1818 403.408 46.2273 403.704 46.2273C403.925 46.2273 404.107 46.2159 404.249 46.1932C404.391 46.1648 404.505 46.142 404.59 46.125L404.999 47.9318C404.863 47.983 404.673 48.0341 404.428 48.0852C404.184 48.142 403.874 48.1705 403.499 48.1705C402.931 48.1705 402.374 48.0483 401.829 47.804C401.289 47.5597 400.84 47.1875 400.482 46.6875C400.13 46.1875 399.954 45.5568 399.954 44.7955V31.7727Z" fill="#7E7E7E"/>
</svg>
